<mxfile host="app.diagrams.net" modified="2023-09-18T05:36:54.166Z" agent="Mozilla/5.0 (Windows NT 10.0; Win64; x64) AppleWebKit/537.36 (KHTML, like Gecko) Chrome/117.0.0.0 Safari/537.36 Edg/117.0.2045.31" etag="YUFlvL5O31eApzrIXdHI" version="21.7.5" type="github">
  <diagram name="第 1 页" id="VX7kbCPHljuzMA6lDNvm">
    <mxGraphModel dx="1165" dy="647" grid="0" gridSize="10" guides="1" tooltips="1" connect="1" arrows="1" fold="1" page="0" pageScale="1" pageWidth="827" pageHeight="1169" math="0" shadow="0">
      <root>
        <mxCell id="0" />
        <mxCell id="1" parent="0" />
        <mxCell id="ZpOJHuAZUgZl2GddKv5T-9" style="edgeStyle=orthogonalEdgeStyle;rounded=0;orthogonalLoop=1;jettySize=auto;html=1;exitX=1;exitY=0.5;exitDx=0;exitDy=0;entryX=0;entryY=0.5;entryDx=0;entryDy=0;strokeWidth=2;" parent="1" source="ZpOJHuAZUgZl2GddKv5T-1" target="ZpOJHuAZUgZl2GddKv5T-3" edge="1">
          <mxGeometry relative="1" as="geometry" />
        </mxCell>
        <mxCell id="ZpOJHuAZUgZl2GddKv5T-1" value="数据清洗&lt;br&gt;与预处理" style="rounded=0;whiteSpace=wrap;html=1;fontSize=20;strokeWidth=2;" parent="1" vertex="1">
          <mxGeometry x="60" y="170" width="120" height="60" as="geometry" />
        </mxCell>
        <mxCell id="vbjIazLeotghtD-2H-xf-1" style="edgeStyle=orthogonalEdgeStyle;rounded=0;orthogonalLoop=1;jettySize=auto;html=1;exitX=0.5;exitY=0;exitDx=0;exitDy=0;entryX=0.5;entryY=1;entryDx=0;entryDy=0;strokeWidth=2;" edge="1" parent="1" source="ZpOJHuAZUgZl2GddKv5T-2" target="ZpOJHuAZUgZl2GddKv5T-1">
          <mxGeometry relative="1" as="geometry">
            <mxPoint x="120" y="232" as="targetPoint" />
          </mxGeometry>
        </mxCell>
        <mxCell id="ZpOJHuAZUgZl2GddKv5T-2" value="英文文本&lt;br&gt;数据" style="rounded=0;whiteSpace=wrap;html=1;fontSize=20;strokeWidth=2;" parent="1" vertex="1">
          <mxGeometry x="60" y="310" width="120" height="60" as="geometry" />
        </mxCell>
        <mxCell id="ZpOJHuAZUgZl2GddKv5T-3" value="词频特征" style="rounded=0;whiteSpace=wrap;html=1;fontSize=20;strokeWidth=2;" parent="1" vertex="1">
          <mxGeometry x="330" y="170" width="120" height="60" as="geometry" />
        </mxCell>
        <mxCell id="ZpOJHuAZUgZl2GddKv5T-4" value="数据标注" style="rounded=0;whiteSpace=wrap;html=1;fontSize=20;strokeWidth=2;" parent="1" vertex="1">
          <mxGeometry x="330" y="310" width="120" height="60" as="geometry" />
        </mxCell>
        <mxCell id="ZpOJHuAZUgZl2GddKv5T-15" style="edgeStyle=orthogonalEdgeStyle;rounded=0;orthogonalLoop=1;jettySize=auto;html=1;entryX=0;entryY=0.5;entryDx=0;entryDy=0;strokeWidth=2;" parent="1" source="ZpOJHuAZUgZl2GddKv5T-5" target="ZpOJHuAZUgZl2GddKv5T-6" edge="1">
          <mxGeometry relative="1" as="geometry" />
        </mxCell>
        <mxCell id="ZpOJHuAZUgZl2GddKv5T-5" value="机器学习&lt;br&gt;模型训练" style="rounded=0;whiteSpace=wrap;html=1;fontSize=20;strokeWidth=2;" parent="1" vertex="1">
          <mxGeometry x="510" y="240" width="120" height="60" as="geometry" />
        </mxCell>
        <mxCell id="ZpOJHuAZUgZl2GddKv5T-6" value="交叉验证&lt;br&gt;性能评估" style="rounded=0;whiteSpace=wrap;html=1;fontSize=20;strokeWidth=2;" parent="1" vertex="1">
          <mxGeometry x="680" y="240" width="120" height="60" as="geometry" />
        </mxCell>
        <mxCell id="ZpOJHuAZUgZl2GddKv5T-7" value="" style="endArrow=classic;html=1;rounded=0;entryX=0;entryY=0.5;entryDx=0;entryDy=0;strokeWidth=2;" parent="1" source="ZpOJHuAZUgZl2GddKv5T-2" target="ZpOJHuAZUgZl2GddKv5T-4" edge="1">
          <mxGeometry width="50" height="50" relative="1" as="geometry">
            <mxPoint x="320" y="330" as="sourcePoint" />
            <mxPoint x="370" y="280" as="targetPoint" />
          </mxGeometry>
        </mxCell>
        <mxCell id="ZpOJHuAZUgZl2GddKv5T-10" value="" style="endArrow=none;html=1;rounded=0;strokeWidth=2;" parent="1" edge="1">
          <mxGeometry width="50" height="50" relative="1" as="geometry">
            <mxPoint x="480" y="340" as="sourcePoint" />
            <mxPoint x="480" y="200" as="targetPoint" />
          </mxGeometry>
        </mxCell>
        <mxCell id="ZpOJHuAZUgZl2GddKv5T-12" value="" style="endArrow=none;html=1;rounded=0;exitX=1;exitY=0.5;exitDx=0;exitDy=0;strokeWidth=2;" parent="1" source="ZpOJHuAZUgZl2GddKv5T-4" edge="1">
          <mxGeometry width="50" height="50" relative="1" as="geometry">
            <mxPoint x="680" y="420" as="sourcePoint" />
            <mxPoint x="480" y="340" as="targetPoint" />
          </mxGeometry>
        </mxCell>
        <mxCell id="ZpOJHuAZUgZl2GddKv5T-13" value="" style="endArrow=none;html=1;rounded=0;exitX=1;exitY=0.5;exitDx=0;exitDy=0;strokeWidth=2;" parent="1" source="ZpOJHuAZUgZl2GddKv5T-3" edge="1">
          <mxGeometry width="50" height="50" relative="1" as="geometry">
            <mxPoint x="510" y="200" as="sourcePoint" />
            <mxPoint x="480" y="200" as="targetPoint" />
          </mxGeometry>
        </mxCell>
        <mxCell id="ZpOJHuAZUgZl2GddKv5T-14" value="" style="endArrow=classic;html=1;rounded=0;entryX=0;entryY=0.5;entryDx=0;entryDy=0;strokeWidth=2;" parent="1" target="ZpOJHuAZUgZl2GddKv5T-5" edge="1">
          <mxGeometry width="50" height="50" relative="1" as="geometry">
            <mxPoint x="480" y="270" as="sourcePoint" />
            <mxPoint x="530" y="200" as="targetPoint" />
          </mxGeometry>
        </mxCell>
        <mxCell id="ZpOJHuAZUgZl2GddKv5T-16" value="ProfilerPlus" style="text;html=1;align=center;verticalAlign=middle;resizable=0;points=[];autosize=1;strokeColor=none;fillColor=none;fontSize=15;strokeWidth=2;" parent="1" vertex="1">
          <mxGeometry x="200" y="310" width="100" height="30" as="geometry" />
        </mxCell>
        <mxCell id="ZpOJHuAZUgZl2GddKv5T-17" value="获取" style="text;html=1;align=center;verticalAlign=middle;resizable=0;points=[];autosize=1;strokeColor=none;fillColor=none;fontSize=15;strokeWidth=2;" parent="1" vertex="1">
          <mxGeometry x="225" y="340" width="50" height="30" as="geometry" />
        </mxCell>
        <mxCell id="ZpOJHuAZUgZl2GddKv5T-18" value="特征提取" style="text;html=1;align=center;verticalAlign=middle;resizable=0;points=[];autosize=1;strokeColor=none;fillColor=none;fontSize=15;strokeWidth=2;" parent="1" vertex="1">
          <mxGeometry x="210" y="170" width="80" height="30" as="geometry" />
        </mxCell>
      </root>
    </mxGraphModel>
  </diagram>
</mxfile>
